<svg width="122" height="125" viewBox="0 0 122 125" fill="none" xmlns="http://www.w3.org/2000/svg">
<path d="M103.811 48.5702L48.5774 105.5C40.491 113.835 27.133 114.084 18.7414 106.057C10.3499 98.029 10.1026 84.7646 18.189 76.4298L73.4225 19.4998C81.5089 11.1649 94.8669 10.9159 103.258 18.9435C111.65 26.971 111.897 40.2354 103.811 48.5702Z" stroke="white" stroke-width="5"/>
<path d="M50.0825 19.1089L103.296 77.8751C111.093 86.4856 110.389 99.7374 101.724 107.474C93.0591 115.21 79.7142 114.502 71.9173 105.891L18.7041 47.1249C10.9072 38.5144 11.6109 25.2626 20.2758 17.5262C28.9407 9.78977 42.2856 10.4984 50.0825 19.1089Z" stroke="white" stroke-width="5"/>
<rect width="2.90401" height="8.19557" transform="matrix(0.709592 0.704613 -0.709592 0.704613 36.8623 62.7349)" fill="black"/>
<rect width="2.90401" height="8.19557" transform="matrix(0.709592 0.704613 -0.709592 0.704613 36.8623 62.7349)" fill="black"/>
<rect width="2.90401" height="8.19557" transform="matrix(0.709592 0.704613 -0.709592 0.704613 95.1848 62.6983)" fill="black"/>
<rect width="2.90401" height="8.19557" transform="matrix(0.709592 0.704613 -0.709592 0.704613 95.1848 62.6983)" fill="black"/>
<rect width="2.90401" height="8.19557" transform="matrix(0.709592 0.704613 -0.709592 0.704613 88.385 54.9816)" fill="black"/>
<rect width="2.90401" height="8.19557" transform="matrix(0.709592 0.704613 -0.709592 0.704613 88.385 54.9816)" fill="black"/>
<rect width="2.90401" height="8.19557" transform="matrix(0.709592 0.704613 -0.709592 0.704613 30.1006 54.9816)" fill="black"/>
<rect width="2.90401" height="8.19557" transform="matrix(0.709592 0.704613 -0.709592 0.704613 30.1006 54.9816)" fill="black"/>
<rect width="2.90508" height="8.19255" transform="matrix(0.745482 -0.666525 0.67173 0.740796 54.3987 32.8032)" fill="black"/>
<rect width="2.90508" height="8.19255" transform="matrix(0.745482 -0.666525 0.67173 0.740796 54.3987 32.8032)" fill="black"/>
<rect width="2.90508" height="8.19255" transform="matrix(0.745482 -0.666525 0.67173 0.740796 53.4275 95.5015)" fill="black"/>
<rect width="2.90508" height="8.19255" transform="matrix(0.745482 -0.666525 0.67173 0.740796 53.4275 95.5015)" fill="black"/>
<rect width="2.90508" height="8.19255" transform="matrix(0.745482 -0.666525 0.67173 0.740796 62.1699 27.0156)" fill="black"/>
<rect width="2.90508" height="8.19255" transform="matrix(0.745482 -0.666525 0.67173 0.740796 62.1699 27.0156)" fill="black"/>
<rect width="2.90508" height="8.19255" transform="matrix(0.745482 -0.666525 0.67173 0.740796 61.1987 87.7848)" fill="black"/>
<rect width="2.90508" height="8.19255" transform="matrix(0.745482 -0.666525 0.67173 0.740796 61.1987 87.7848)" fill="black"/>
</svg>
